<svg width="76" height="55" viewBox="0 0 76 55" fill="none" xmlns="http://www.w3.org/2000/svg">
<path d="M45.0415 7.52734H31.4547C30.3291 7.52734 29.4166 8.4398 29.4166 9.56537V21.7935C29.4166 22.9191 30.3291 23.8316 31.4547 23.8316H45.0415C46.1671 23.8316 47.0795 22.9191 47.0795 21.7935V9.56537C47.0795 8.4398 46.1671 7.52734 45.0415 7.52734Z" stroke="#CACACA" stroke-width="1.35868" stroke-linejoin="round"/>
<path d="M39.9464 14.9999C40.5092 14.9999 40.9654 14.5437 40.9654 13.9809C40.9654 13.4181 40.5092 12.9619 39.9464 12.9619C39.3836 12.9619 38.9274 13.4181 38.9274 13.9809C38.9274 14.5437 39.3836 14.9999 39.9464 14.9999Z" fill="#CACACA"/>
<path d="M43.3431 14.9999C43.9059 14.9999 44.3621 14.5437 44.3621 13.9809C44.3621 13.4181 43.9059 12.9619 43.3431 12.9619C42.7803 12.9619 42.3241 13.4181 42.3241 13.9809C42.3241 14.5437 42.7803 14.9999 43.3431 14.9999Z" fill="#CACACA"/>
<path d="M39.9464 18.3969C40.5092 18.3969 40.9654 17.9407 40.9654 17.3779C40.9654 16.8151 40.5092 16.3589 39.9464 16.3589C39.3836 16.3589 38.9274 16.8151 38.9274 17.3779C38.9274 17.9407 39.3836 18.3969 39.9464 18.3969Z" fill="#CACACA"/>
<path d="M43.3431 18.3969C43.9059 18.3969 44.3621 17.9407 44.3621 17.3779C44.3621 16.8151 43.9059 16.3589 43.3431 16.3589C42.7803 16.3589 42.3241 16.8151 42.3241 17.3779C42.3241 17.9407 42.7803 18.3969 43.3431 18.3969Z" fill="#CACACA"/>
<path d="M33.153 18.3969C33.7158 18.3969 34.1721 17.9407 34.1721 17.3779C34.1721 16.8151 33.7158 16.3589 33.153 16.3589C32.5903 16.3589 32.134 16.8151 32.134 17.3779C32.134 17.9407 32.5903 18.3969 33.153 18.3969Z" fill="#CACACA"/>
<path d="M36.5498 18.3969C37.1126 18.3969 37.5688 17.9407 37.5688 17.3779C37.5688 16.8151 37.1126 16.3589 36.5498 16.3589C35.987 16.3589 35.5308 16.8151 35.5308 17.3779C35.5308 17.9407 35.987 18.3969 36.5498 18.3969Z" fill="#CACACA"/>
<path d="M33.153 21.7934C33.7158 21.7934 34.1721 21.3372 34.1721 20.7744C34.1721 20.2116 33.7158 19.7554 33.153 19.7554C32.5903 19.7554 32.134 20.2116 32.134 20.7744C32.134 21.3372 32.5903 21.7934 33.153 21.7934Z" fill="#CACACA"/>
<path d="M36.5498 21.7934C37.1126 21.7934 37.5688 21.3372 37.5688 20.7744C37.5688 20.2116 37.1126 19.7554 36.5498 19.7554C35.987 19.7554 35.5308 20.2116 35.5308 20.7744C35.5308 21.3372 35.987 21.7934 36.5498 21.7934Z" fill="#CACACA"/>
<path d="M39.9464 21.7934C40.5092 21.7934 40.9654 21.3372 40.9654 20.7744C40.9654 20.2116 40.5092 19.7554 39.9464 19.7554C39.3836 19.7554 38.9274 20.2116 38.9274 20.7744C38.9274 21.3372 39.3836 21.7934 39.9464 21.7934Z" fill="#CACACA"/>
<path d="M32.8134 6.16846V7.52714M43.6828 6.16846V7.52714" stroke="#CACACA" stroke-width="1.35868" stroke-linecap="round" stroke-linejoin="round"/>
<path d="M47.0795 10.9238H29.4166" stroke="#CACACA" stroke-width="1.35868" stroke-linejoin="round"/>
<path d="M10.1039 47.096C9.26389 47.096 8.50389 46.912 7.82389 46.544C7.15189 46.168 6.62389 45.656 6.23989 45.008C5.85589 44.352 5.66389 43.616 5.66389 42.8C5.66389 41.984 5.85589 41.252 6.23989 40.604C6.62389 39.948 7.15589 39.436 7.83589 39.068C8.51589 38.692 9.27589 38.504 10.1159 38.504C10.7719 38.504 11.3719 38.616 11.9159 38.84C12.4599 39.056 12.9239 39.38 13.3079 39.812L12.5279 40.568C11.8959 39.904 11.1079 39.572 10.1639 39.572C9.53989 39.572 8.97589 39.712 8.47189 39.992C7.96789 40.272 7.57189 40.66 7.28389 41.156C7.00389 41.644 6.86389 42.192 6.86389 42.8C6.86389 43.408 7.00389 43.96 7.28389 44.456C7.57189 44.944 7.96789 45.328 8.47189 45.608C8.97589 45.888 9.53989 46.028 10.1639 46.028C11.0999 46.028 11.8879 45.692 12.5279 45.02L13.3079 45.776C12.9239 46.208 12.4559 46.536 11.9039 46.76C11.3599 46.984 10.7599 47.096 10.1039 47.096ZM17.0857 40.58C17.9657 40.58 18.6377 40.796 19.1017 41.228C19.5737 41.66 19.8097 42.304 19.8097 43.16V47H18.7177V46.16C18.5257 46.456 18.2497 46.684 17.8897 46.844C17.5377 46.996 17.1177 47.072 16.6297 47.072C15.9177 47.072 15.3457 46.9 14.9137 46.556C14.4897 46.212 14.2777 45.76 14.2777 45.2C14.2777 44.64 14.4817 44.192 14.8897 43.856C15.2977 43.512 15.9457 43.34 16.8337 43.34H18.6577V43.112C18.6577 42.616 18.5137 42.236 18.2257 41.972C17.9377 41.708 17.5137 41.576 16.9537 41.576C16.5777 41.576 16.2097 41.64 15.8497 41.768C15.4897 41.888 15.1857 42.052 14.9377 42.26L14.4577 41.396C14.7857 41.132 15.1777 40.932 15.6337 40.796C16.0897 40.652 16.5737 40.58 17.0857 40.58ZM16.8217 46.184C17.2617 46.184 17.6417 46.088 17.9617 45.896C18.2817 45.696 18.5137 45.416 18.6577 45.056V44.168H16.8817C15.9057 44.168 15.4177 44.496 15.4177 45.152C15.4177 45.472 15.5417 45.724 15.7897 45.908C16.0377 46.092 16.3817 46.184 16.8217 46.184ZM21.9416 38.096H23.0936V47H21.9416V38.096ZM31.0412 43.856C31.0412 43.944 31.0332 44.06 31.0172 44.204H25.8572C25.9292 44.764 26.1732 45.216 26.5892 45.56C27.0132 45.896 27.5372 46.064 28.1612 46.064C28.9212 46.064 29.5332 45.808 29.9972 45.296L30.6332 46.04C30.3452 46.376 29.9852 46.632 29.5532 46.808C29.1292 46.984 28.6532 47.072 28.1252 47.072C27.4532 47.072 26.8572 46.936 26.3372 46.664C25.8172 46.384 25.4132 45.996 25.1252 45.5C24.8452 45.004 24.7052 44.444 24.7052 43.82C24.7052 43.204 24.8412 42.648 25.1132 42.152C25.3932 41.656 25.7732 41.272 26.2532 41C26.7412 40.72 27.2892 40.58 27.8972 40.58C28.5052 40.58 29.0452 40.72 29.5172 41C29.9972 41.272 30.3692 41.656 30.6332 42.152C30.9052 42.648 31.0412 43.216 31.0412 43.856ZM27.8972 41.552C27.3452 41.552 26.8812 41.72 26.5052 42.056C26.1372 42.392 25.9212 42.832 25.8572 43.376H29.9372C29.8732 42.84 29.6532 42.404 29.2772 42.068C28.9092 41.724 28.4492 41.552 27.8972 41.552ZM36.0368 40.58C36.8448 40.58 37.4848 40.816 37.9568 41.288C38.4368 41.752 38.6768 42.436 38.6768 43.34V47H37.5248V43.472C37.5248 42.856 37.3768 42.392 37.0808 42.08C36.7848 41.768 36.3608 41.612 35.8088 41.612C35.1848 41.612 34.6928 41.796 34.3328 42.164C33.9728 42.524 33.7928 43.044 33.7928 43.724V47H32.6408V40.64H33.7448V41.6C33.9768 41.272 34.2888 41.02 34.6808 40.844C35.0808 40.668 35.5328 40.58 36.0368 40.58ZM46.844 38.096V47H45.74V45.992C45.484 46.344 45.16 46.612 44.768 46.796C44.376 46.98 43.944 47.072 43.472 47.072C42.856 47.072 42.304 46.936 41.816 46.664C41.328 46.392 40.944 46.012 40.664 45.524C40.392 45.028 40.256 44.46 40.256 43.82C40.256 43.18 40.392 42.616 40.664 42.128C40.944 41.64 41.328 41.26 41.816 40.988C42.304 40.716 42.856 40.58 43.472 40.58C43.928 40.58 44.348 40.668 44.732 40.844C45.116 41.012 45.436 41.264 45.692 41.6V38.096H46.844ZM43.568 46.064C43.968 46.064 44.332 45.972 44.66 45.788C44.988 45.596 45.244 45.332 45.428 44.996C45.612 44.652 45.704 44.26 45.704 43.82C45.704 43.38 45.612 42.992 45.428 42.656C45.244 42.312 44.988 42.048 44.66 41.864C44.332 41.68 43.968 41.588 43.568 41.588C43.16 41.588 42.792 41.68 42.464 41.864C42.144 42.048 41.888 42.312 41.696 42.656C41.512 42.992 41.42 43.38 41.42 43.82C41.42 44.26 41.512 44.652 41.696 44.996C41.888 45.332 42.144 45.596 42.464 45.788C42.792 45.972 43.16 46.064 43.568 46.064ZM51.3396 40.58C52.2196 40.58 52.8916 40.796 53.3556 41.228C53.8276 41.66 54.0636 42.304 54.0636 43.16V47H52.9716V46.16C52.7796 46.456 52.5036 46.684 52.1436 46.844C51.7916 46.996 51.3716 47.072 50.8836 47.072C50.1716 47.072 49.5996 46.9 49.1676 46.556C48.7436 46.212 48.5316 45.76 48.5316 45.2C48.5316 44.64 48.7356 44.192 49.1436 43.856C49.5516 43.512 50.1996 43.34 51.0876 43.34H52.9116V43.112C52.9116 42.616 52.7676 42.236 52.4796 41.972C52.1916 41.708 51.7676 41.576 51.2076 41.576C50.8316 41.576 50.4636 41.64 50.1036 41.768C49.7436 41.888 49.4396 42.052 49.1916 42.26L48.7116 41.396C49.0396 41.132 49.4316 40.932 49.8876 40.796C50.3436 40.652 50.8276 40.58 51.3396 40.58ZM51.0756 46.184C51.5156 46.184 51.8956 46.088 52.2156 45.896C52.5356 45.696 52.7676 45.416 52.9116 45.056V44.168H51.1356C50.1596 44.168 49.6716 44.496 49.6716 45.152C49.6716 45.472 49.7956 45.724 50.0436 45.908C50.2916 46.092 50.6356 46.184 51.0756 46.184ZM57.2995 41.708C57.4995 41.34 57.7955 41.06 58.1875 40.868C58.5795 40.676 59.0555 40.58 59.6155 40.58V41.696C59.5515 41.688 59.4635 41.684 59.3515 41.684C58.7275 41.684 58.2355 41.872 57.8755 42.248C57.5235 42.616 57.3475 43.144 57.3475 43.832V47H56.1955V40.64H57.2995V41.708ZM61.0354 40.64H62.1874V47H61.0354V40.64ZM61.6114 39.416C61.3874 39.416 61.1994 39.344 61.0474 39.2C60.9034 39.056 60.8314 38.88 60.8314 38.672C60.8314 38.464 60.9034 38.288 61.0474 38.144C61.1994 37.992 61.3874 37.916 61.6114 37.916C61.8354 37.916 62.0194 37.988 62.1634 38.132C62.3154 38.268 62.3914 38.44 62.3914 38.648C62.3914 38.864 62.3154 39.048 62.1634 39.2C62.0194 39.344 61.8354 39.416 61.6114 39.416ZM67.1109 47.072C66.4789 47.072 65.9109 46.932 65.4069 46.652C64.9029 46.372 64.5069 45.988 64.2189 45.5C63.9389 45.004 63.7989 44.444 63.7989 43.82C63.7989 43.196 63.9389 42.64 64.2189 42.152C64.5069 41.656 64.9029 41.272 65.4069 41C65.9109 40.72 66.4789 40.58 67.1109 40.58C67.7429 40.58 68.3069 40.72 68.8029 41C69.3069 41.272 69.6989 41.656 69.9789 42.152C70.2669 42.64 70.4109 43.196 70.4109 43.82C70.4109 44.444 70.2669 45.004 69.9789 45.5C69.6989 45.988 69.3069 46.372 68.8029 46.652C68.3069 46.932 67.7429 47.072 67.1109 47.072ZM67.1109 46.064C67.5189 46.064 67.8829 45.972 68.2029 45.788C68.5309 45.596 68.7869 45.332 68.9709 44.996C69.1549 44.652 69.2469 44.26 69.2469 43.82C69.2469 43.38 69.1549 42.992 68.9709 42.656C68.7869 42.312 68.5309 42.048 68.2029 41.864C67.8829 41.68 67.5189 41.588 67.1109 41.588C66.7029 41.588 66.3349 41.68 66.0069 41.864C65.6869 42.048 65.4309 42.312 65.2389 42.656C65.0549 42.992 64.9629 43.38 64.9629 43.82C64.9629 44.26 65.0549 44.652 65.2389 44.996C65.4309 45.332 65.6869 45.596 66.0069 45.788C66.3349 45.972 66.7029 46.064 67.1109 46.064Z" fill="#CACACA"/>
</svg>
