<svg width="17" height="17" viewBox="0 0 17 17" fill="none" xmlns="http://www.w3.org/2000/svg">
<path d="M3.71875 10.625C3.71875 7.53711 7.83594 5.14648 6.90625 1.59375C9.09766 1.59375 13.2812 4.78125 13.2812 10.625C13.2812 11.8931 12.7775 13.1092 11.8809 14.0059C10.9842 14.9025 9.76807 15.4062 8.5 15.4062C7.23193 15.4062 6.0158 14.9025 5.11915 14.0059C4.22249 13.1092 3.71875 11.8931 3.71875 10.625Z" fill="#F91F1F"/>
<path d="M10.625 12.2188C10.625 14.1349 9.5625 14.875 8.5 14.875C7.4375 14.875 6.375 14.1349 6.375 12.2188C6.375 10.3026 7.70312 9.36328 7.4375 7.96875C8.83203 7.96875 10.625 10.3026 10.625 12.2188Z" fill="#FED500"/>
</svg>
