<svg width="20" height="20" viewBox="0 0 20 20" fill="none" xmlns="http://www.w3.org/2000/svg">
<path d="M9.98663 4.37451C6.9421 4.37451 3.81906 6.13662 1.36046 9.66084C1.29028 9.76254 1.25183 9.88276 1.24995 10.0063C1.24807 10.1299 1.28286 10.2512 1.34992 10.355C3.23898 13.312 6.32023 15.6245 9.98663 15.6245C13.6132 15.6245 16.7577 13.305 18.6503 10.3413C18.7158 10.2396 18.7506 10.1211 18.7506 10.0001C18.7506 9.87909 18.7158 9.76064 18.6503 9.65889C16.7534 6.7292 13.5859 4.37451 9.98663 4.37451Z" stroke="#9F9F9F" stroke-width="1.25" stroke-linecap="round" stroke-linejoin="round"/>
<path d="M9.99976 13.1245C11.7256 13.1245 13.1248 11.7254 13.1248 9.99951C13.1248 8.27362 11.7256 6.87451 9.99976 6.87451C8.27387 6.87451 6.87476 8.27362 6.87476 9.99951C6.87476 11.7254 8.27387 13.1245 9.99976 13.1245Z" stroke="#9F9F9F" stroke-width="1.25" stroke-miterlimit="10"/>
</svg>
