<svg width="20" height="20" viewBox="0 0 20 20" fill="none" xmlns="http://www.w3.org/2000/svg">
<path d="M16.8748 17.5004C16.7927 17.5005 16.7114 17.4844 16.6356 17.453C16.5598 17.4215 16.4909 17.3754 16.433 17.3172L2.68301 3.5672C2.57074 3.44904 2.50908 3.29169 2.51117 3.12872C2.51325 2.96574 2.57892 2.81003 2.69418 2.69478C2.80943 2.57953 2.96514 2.51386 3.12812 2.51177C3.29109 2.50968 3.44844 2.57134 3.5666 2.68361L17.3166 16.4336C17.4039 16.521 17.4634 16.6324 17.4875 16.7536C17.5116 16.8748 17.4992 17.0004 17.452 17.1145C17.4047 17.2287 17.3246 17.3263 17.2219 17.395C17.1192 17.4637 16.9984 17.5003 16.8748 17.5004ZM9.98652 15.0004C8.36582 15.0004 6.80293 14.5207 5.34121 13.5746C4.01035 12.7152 2.8123 11.4844 1.87636 10.0199V10.0168C2.65527 8.90079 3.5084 7.95704 4.4248 7.19611C4.43309 7.18918 4.43985 7.1806 4.44466 7.17092C4.44947 7.16125 4.45222 7.15068 4.45273 7.13988C4.45324 7.12909 4.45151 7.11831 4.44765 7.10822C4.44378 7.09813 4.43786 7.08895 4.43027 7.08126L3.65215 6.30431C3.63832 6.29037 3.61975 6.28215 3.60013 6.28128C3.58052 6.28041 3.56129 6.28696 3.54629 6.29962C2.57285 7.11993 1.66933 8.12618 0.847849 9.30431C0.706515 9.50716 0.628677 9.74745 0.624226 9.99465C0.619774 10.2418 0.688911 10.4848 0.822849 10.6926C1.85449 12.307 3.18222 13.6668 4.66191 14.6242C6.32793 15.7035 8.1209 16.2504 9.98652 16.2504C10.9935 16.2473 11.9934 16.0813 12.9475 15.759C12.96 15.7547 12.9713 15.7473 12.9803 15.7375C12.9892 15.7276 12.9954 15.7157 12.9985 15.7027C13.0015 15.6898 13.0011 15.6763 12.9975 15.6635C12.9938 15.6507 12.9869 15.6391 12.9775 15.6297L12.1346 14.7867C12.1152 14.7678 12.0912 14.7542 12.0649 14.7474C12.0387 14.7405 12.0111 14.7406 11.985 14.7477C11.3321 14.9158 10.6607 15.0007 9.98652 15.0004ZM19.1732 9.32072C18.1396 7.72228 16.7986 6.36447 15.2955 5.39376C13.6326 4.31876 11.7967 3.7504 9.98652 3.7504C8.99018 3.75217 8.00124 3.92159 7.06113 4.25158C7.0486 4.25593 7.03739 4.26341 7.02856 4.2733C7.01972 4.28319 7.01354 4.29516 7.01061 4.3081C7.00768 4.32103 7.00809 4.3345 7.0118 4.34723C7.01552 4.35996 7.02241 4.37154 7.03183 4.38087L7.87363 5.22267C7.89323 5.24193 7.91756 5.25569 7.94417 5.26255C7.97078 5.2694 7.99873 5.26912 8.02519 5.26173C8.66463 5.08875 9.3241 5.00089 9.98652 5.0004C11.576 5.0004 13.1342 5.48595 14.6174 6.44572C15.9732 7.32072 17.1853 8.5504 18.1236 10.0004C18.1243 10.0013 18.1247 10.0024 18.1247 10.0035C18.1247 10.0047 18.1243 10.0058 18.1236 10.0067C17.4425 11.0789 16.5974 12.0376 15.6189 12.8477C15.6106 12.8546 15.6037 12.8631 15.5988 12.8728C15.594 12.8825 15.5912 12.8932 15.5906 12.904C15.59 12.9148 15.5918 12.9257 15.5956 12.9358C15.5995 12.946 15.6054 12.9552 15.6131 12.9629L16.3904 13.7399C16.4042 13.7537 16.4226 13.762 16.4422 13.7629C16.4617 13.7639 16.4809 13.7574 16.4959 13.7449C17.5404 12.8654 18.4446 11.8317 19.1771 10.6793C19.3066 10.4762 19.3751 10.2403 19.3744 9.99944C19.3737 9.75861 19.3039 9.52303 19.1732 9.32072Z" fill="#9F9F9F"/>
<path d="M9.99981 6.25C9.71892 6.24985 9.43891 6.2813 9.16505 6.34375C9.15122 6.34662 9.13842 6.35319 9.12803 6.36276C9.11763 6.37233 9.11002 6.38453 9.10602 6.39808C9.10201 6.41163 9.10175 6.42601 9.10526 6.43969C9.10878 6.45337 9.11594 6.46585 9.12599 6.47578L13.524 10.8727C13.534 10.8827 13.5464 10.8899 13.5601 10.8934C13.5738 10.8969 13.5882 10.8966 13.6017 10.8926C13.6153 10.8886 13.6275 10.881 13.6371 10.8706C13.6466 10.8602 13.6532 10.8474 13.6561 10.8336C13.7813 10.2844 13.7812 9.71403 13.6557 9.16488C13.5303 8.61573 13.2827 8.1019 12.9315 7.66154C12.5802 7.22118 12.1342 6.86562 11.6267 6.62125C11.1192 6.37688 10.5631 6.24999 9.99981 6.25ZM6.47559 9.12734C6.46566 9.1173 6.45319 9.11014 6.4395 9.10662C6.42582 9.10311 6.41144 9.10337 6.39789 9.10738C6.38435 9.11138 6.37214 9.11899 6.36257 9.12938C6.35301 9.13978 6.34644 9.15257 6.34356 9.16641C6.2019 9.78529 6.21969 10.43 6.39526 11.0401C6.57083 11.6503 6.89844 12.2058 7.34737 12.6548C7.79631 13.1037 8.35188 13.4313 8.96201 13.6069C9.57214 13.7825 10.2169 13.8003 10.8358 13.6586C10.8496 13.6557 10.8624 13.6492 10.8728 13.6396C10.8832 13.63 10.8908 13.6178 10.8948 13.6043C10.8988 13.5907 10.8991 13.5763 10.8955 13.5627C10.892 13.549 10.8849 13.5365 10.8748 13.5266L6.47559 9.12734Z" fill="#9F9F9F"/>
</svg>
