<svg width="76" height="55" viewBox="0 0 66 55" fill="none" xmlns="http://www.w3.org/2000/svg">
<path d="M36.333 22.5V20.8333C36.333 19.9493 35.9818 19.1014 35.3567 18.4763C34.7316 17.8512 33.8837 17.5 32.9997 17.5H27.1663C26.2823 17.5 25.4344 17.8512 24.8093 18.4763C24.1842 19.1014 23.833 19.9493 23.833 20.8333V22.5" stroke="#CACACA" stroke-width="1.66667" stroke-linecap="round" stroke-linejoin="round"/>
<path d="M30.0833 14.1667C31.9243 14.1667 33.4167 12.6743 33.4167 10.8333C33.4167 8.99238 31.9243 7.5 30.0833 7.5C28.2424 7.5 26.75 8.99238 26.75 10.8333C26.75 12.6743 28.2424 14.1667 30.0833 14.1667Z" stroke="#CACACA" stroke-width="1.66667" stroke-linecap="round" stroke-linejoin="round"/>
<path d="M37.167 14.1667L38.8337 15.8333L42.167 12.5" stroke="#CACACA" stroke-width="1.66667" stroke-linecap="round" stroke-linejoin="round"/>
<path d="M14.3449 47L14.3329 40.88L11.2969 45.98H10.7449L7.70888 40.916V47H6.55688V38.6H7.54088L11.0449 44.504L14.5009 38.6H15.4849L15.4969 47H14.3449ZM20.1658 40.58C21.0458 40.58 21.7178 40.796 22.1818 41.228C22.6538 41.66 22.8898 42.304 22.8898 43.16V47H21.7978V46.16C21.6058 46.456 21.3298 46.684 20.9698 46.844C20.6178 46.996 20.1978 47.072 19.7098 47.072C18.9978 47.072 18.4258 46.9 17.9938 46.556C17.5698 46.212 17.3578 45.76 17.3578 45.2C17.3578 44.64 17.5618 44.192 17.9698 43.856C18.3778 43.512 19.0258 43.34 19.9138 43.34H21.7378V43.112C21.7378 42.616 21.5938 42.236 21.3058 41.972C21.0178 41.708 20.5938 41.576 20.0338 41.576C19.6578 41.576 19.2898 41.64 18.9298 41.768C18.5698 41.888 18.2658 42.052 18.0178 42.26L17.5378 41.396C17.8658 41.132 18.2578 40.932 18.7138 40.796C19.1698 40.652 19.6538 40.58 20.1658 40.58ZM19.9018 46.184C20.3418 46.184 20.7218 46.088 21.0418 45.896C21.3618 45.696 21.5938 45.416 21.7378 45.056V44.168H19.9618C18.9858 44.168 18.4978 44.496 18.4978 45.152C18.4978 45.472 18.6218 45.724 18.8698 45.908C19.1178 46.092 19.4618 46.184 19.9018 46.184ZM30.8048 43.856C30.8048 43.944 30.7968 44.06 30.7808 44.204H25.6208C25.6928 44.764 25.9368 45.216 26.3528 45.56C26.7768 45.896 27.3008 46.064 27.9248 46.064C28.6848 46.064 29.2968 45.808 29.7608 45.296L30.3968 46.04C30.1088 46.376 29.7488 46.632 29.3168 46.808C28.8928 46.984 28.4168 47.072 27.8888 47.072C27.2168 47.072 26.6208 46.936 26.1008 46.664C25.5808 46.384 25.1768 45.996 24.8888 45.5C24.6088 45.004 24.4688 44.444 24.4688 43.82C24.4688 43.204 24.6048 42.648 24.8768 42.152C25.1568 41.656 25.5368 41.272 26.0168 41C26.5048 40.72 27.0528 40.58 27.6608 40.58C28.2688 40.58 28.8088 40.72 29.2808 41C29.7608 41.272 30.1328 41.656 30.3968 42.152C30.6688 42.648 30.8048 43.216 30.8048 43.856ZM27.6608 41.552C27.1088 41.552 26.6448 41.72 26.2688 42.056C25.9008 42.392 25.6848 42.832 25.6208 43.376H29.7008C29.6368 42.84 29.4168 42.404 29.0408 42.068C28.6728 41.724 28.2128 41.552 27.6608 41.552ZM34.2285 47.072C33.7085 47.072 33.2085 47.004 32.7285 46.868C32.2485 46.724 31.8725 46.544 31.6005 46.328L32.0805 45.416C32.3605 45.616 32.7005 45.776 33.1005 45.896C33.5005 46.016 33.9045 46.076 34.3125 46.076C35.3205 46.076 35.8245 45.788 35.8245 45.212C35.8245 45.02 35.7565 44.868 35.6205 44.756C35.4845 44.644 35.3125 44.564 35.1045 44.516C34.9045 44.46 34.6165 44.4 34.2405 44.336C33.7285 44.256 33.3085 44.164 32.9805 44.06C32.6605 43.956 32.3845 43.78 32.1525 43.532C31.9205 43.284 31.8045 42.936 31.8045 42.488C31.8045 41.912 32.0445 41.452 32.5245 41.108C33.0045 40.756 33.6485 40.58 34.4565 40.58C34.8805 40.58 35.3045 40.632 35.7285 40.736C36.1525 40.84 36.5005 40.98 36.7725 41.156L36.2805 42.068C35.7605 41.732 35.1485 41.564 34.4445 41.564C33.9565 41.564 33.5845 41.644 33.3285 41.804C33.0725 41.964 32.9445 42.176 32.9445 42.44C32.9445 42.648 33.0165 42.812 33.1605 42.932C33.3045 43.052 33.4805 43.14 33.6885 43.196C33.9045 43.252 34.2045 43.316 34.5885 43.388C35.1005 43.476 35.5125 43.572 35.8245 43.676C36.1445 43.772 36.4165 43.94 36.6405 44.18C36.8645 44.42 36.9765 44.756 36.9765 45.188C36.9765 45.764 36.7285 46.224 36.2325 46.568C35.7445 46.904 35.0765 47.072 34.2285 47.072ZM41.9922 46.628C41.8242 46.772 41.6162 46.884 41.3682 46.964C41.1202 47.036 40.8642 47.072 40.6002 47.072C39.9602 47.072 39.4642 46.9 39.1122 46.556C38.7602 46.212 38.5842 45.72 38.5842 45.08V41.588H37.5042V40.64H38.5842V39.248H39.7362V40.64H41.5602V41.588H39.7362V45.032C39.7362 45.376 39.8202 45.64 39.9882 45.824C40.1642 46.008 40.4122 46.1 40.7322 46.1C41.0842 46.1 41.3842 46 41.6322 45.8L41.9922 46.628ZM44.489 41.708C44.689 41.34 44.985 41.06 45.377 40.868C45.769 40.676 46.245 40.58 46.805 40.58V41.696C46.741 41.688 46.653 41.684 46.541 41.684C45.917 41.684 45.425 41.872 45.065 42.248C44.713 42.616 44.537 43.144 44.537 43.832V47H43.385V40.64H44.489V41.708ZM50.8902 47.072C50.2582 47.072 49.6902 46.932 49.1862 46.652C48.6822 46.372 48.2862 45.988 47.9982 45.5C47.7182 45.004 47.5782 44.444 47.5782 43.82C47.5782 43.196 47.7182 42.64 47.9982 42.152C48.2862 41.656 48.6822 41.272 49.1862 41C49.6902 40.72 50.2582 40.58 50.8902 40.58C51.5222 40.58 52.0862 40.72 52.5822 41C53.0862 41.272 53.4782 41.656 53.7582 42.152C54.0462 42.64 54.1902 43.196 54.1902 43.82C54.1902 44.444 54.0462 45.004 53.7582 45.5C53.4782 45.988 53.0862 46.372 52.5822 46.652C52.0862 46.932 51.5222 47.072 50.8902 47.072ZM50.8902 46.064C51.2982 46.064 51.6622 45.972 51.9822 45.788C52.3102 45.596 52.5662 45.332 52.7502 44.996C52.9342 44.652 53.0262 44.26 53.0262 43.82C53.0262 43.38 52.9342 42.992 52.7502 42.656C52.5662 42.312 52.3102 42.048 51.9822 41.864C51.6622 41.68 51.2982 41.588 50.8902 41.588C50.4822 41.588 50.1142 41.68 49.7862 41.864C49.4662 42.048 49.2102 42.312 49.0182 42.656C48.8342 42.992 48.7422 43.38 48.7422 43.82C48.7422 44.26 48.8342 44.652 49.0182 44.996C49.2102 45.332 49.4662 45.596 49.7862 45.788C50.1142 45.972 50.4822 46.064 50.8902 46.064ZM57.6074 47.072C57.0874 47.072 56.5874 47.004 56.1074 46.868C55.6274 46.724 55.2514 46.544 54.9794 46.328L55.4594 45.416C55.7394 45.616 56.0794 45.776 56.4794 45.896C56.8794 46.016 57.2834 46.076 57.6914 46.076C58.6994 46.076 59.2034 45.788 59.2034 45.212C59.2034 45.02 59.1354 44.868 58.9994 44.756C58.8634 44.644 58.6914 44.564 58.4834 44.516C58.2834 44.46 57.9954 44.4 57.6194 44.336C57.1074 44.256 56.6874 44.164 56.3594 44.06C56.0394 43.956 55.7634 43.78 55.5314 43.532C55.2994 43.284 55.1834 42.936 55.1834 42.488C55.1834 41.912 55.4234 41.452 55.9034 41.108C56.3834 40.756 57.0274 40.58 57.8354 40.58C58.2594 40.58 58.6834 40.632 59.1074 40.736C59.5314 40.84 59.8794 40.98 60.1514 41.156L59.6594 42.068C59.1394 41.732 58.5274 41.564 57.8234 41.564C57.3354 41.564 56.9634 41.644 56.7074 41.804C56.4514 41.964 56.3234 42.176 56.3234 42.44C56.3234 42.648 56.3954 42.812 56.5394 42.932C56.6834 43.052 56.8594 43.14 57.0674 43.196C57.2834 43.252 57.5834 43.316 57.9674 43.388C58.4794 43.476 58.8914 43.572 59.2034 43.676C59.5234 43.772 59.7954 43.94 60.0194 44.18C60.2434 44.42 60.3554 44.756 60.3554 45.188C60.3554 45.764 60.1074 46.224 59.6114 46.568C59.1234 46.904 58.4554 47.072 57.6074 47.072Z" fill="#CACACA"/>
</svg>
