<svg width="76" height="55" viewBox="0 0 73 55" fill="none" xmlns="http://www.w3.org/2000/svg">
<path d="M45.5361 15C45.5361 10.0113 41.4887 5.96387 36.5 5.96387C31.5113 5.96387 27.4639 10.0113 27.4639 15C27.4639 19.9887 31.5113 24.0361 36.5 24.0361C41.4887 24.0361 45.5361 19.9887 45.5361 15Z" fill="#CBB6A2"/>
<path d="M40.9641 11.2793L34.7142 18.7197L32.0356 15.7435" stroke="white" stroke-width="1.50602" stroke-linecap="round" stroke-linejoin="round"/>
<path d="M14.2414 47L14.2294 40.88L11.1934 45.98H10.6414L7.60536 40.916V47H6.45336V38.6H7.43736L10.9414 44.504L14.3974 38.6H15.3814L15.3934 47H14.2414ZM17.7463 40.64H18.8983V47H17.7463V40.64ZM18.3223 39.416C18.0983 39.416 17.9103 39.344 17.7583 39.2C17.6143 39.056 17.5423 38.88 17.5423 38.672C17.5423 38.464 17.6143 38.288 17.7583 38.144C17.9103 37.992 18.0983 37.916 18.3223 37.916C18.5463 37.916 18.7303 37.988 18.8743 38.132C19.0263 38.268 19.1023 38.44 19.1023 38.648C19.1023 38.864 19.0263 39.048 18.8743 39.2C18.7303 39.344 18.5463 39.416 18.3223 39.416ZM22.9219 47.072C22.4019 47.072 21.9019 47.004 21.4219 46.868C20.9419 46.724 20.5659 46.544 20.2939 46.328L20.7739 45.416C21.0539 45.616 21.3939 45.776 21.7939 45.896C22.1939 46.016 22.5979 46.076 23.0059 46.076C24.0139 46.076 24.5179 45.788 24.5179 45.212C24.5179 45.02 24.4499 44.868 24.3139 44.756C24.1779 44.644 24.0059 44.564 23.7979 44.516C23.5979 44.46 23.3099 44.4 22.9339 44.336C22.4219 44.256 22.0019 44.164 21.6739 44.06C21.3539 43.956 21.0779 43.78 20.8459 43.532C20.6139 43.284 20.4979 42.936 20.4979 42.488C20.4979 41.912 20.7379 41.452 21.2179 41.108C21.6979 40.756 22.3419 40.58 23.1499 40.58C23.5739 40.58 23.9979 40.632 24.4219 40.736C24.8459 40.84 25.1939 40.98 25.4659 41.156L24.9739 42.068C24.4539 41.732 23.8419 41.564 23.1379 41.564C22.6499 41.564 22.2779 41.644 22.0219 41.804C21.7659 41.964 21.6379 42.176 21.6379 42.44C21.6379 42.648 21.7099 42.812 21.8539 42.932C21.9979 43.052 22.1739 43.14 22.3819 43.196C22.5979 43.252 22.8979 43.316 23.2819 43.388C23.7939 43.476 24.2059 43.572 24.5179 43.676C24.8379 43.772 25.1099 43.94 25.3339 44.18C25.5579 44.42 25.6699 44.756 25.6699 45.188C25.6699 45.764 25.4219 46.224 24.9259 46.568C24.4379 46.904 23.7699 47.072 22.9219 47.072ZM34.2562 47.096C33.4162 47.096 32.6562 46.912 31.9762 46.544C31.3042 46.168 30.7762 45.656 30.3922 45.008C30.0082 44.352 29.8162 43.616 29.8162 42.8C29.8162 41.984 30.0082 41.252 30.3922 40.604C30.7762 39.948 31.3082 39.436 31.9882 39.068C32.6682 38.692 33.4282 38.504 34.2682 38.504C34.9242 38.504 35.5242 38.616 36.0682 38.84C36.6122 39.056 37.0762 39.38 37.4602 39.812L36.6802 40.568C36.0482 39.904 35.2602 39.572 34.3162 39.572C33.6922 39.572 33.1282 39.712 32.6242 39.992C32.1202 40.272 31.7242 40.66 31.4362 41.156C31.1562 41.644 31.0162 42.192 31.0162 42.8C31.0162 43.408 31.1562 43.96 31.4362 44.456C31.7242 44.944 32.1202 45.328 32.6242 45.608C33.1282 45.888 33.6922 46.028 34.3162 46.028C35.2522 46.028 36.0402 45.692 36.6802 45.02L37.4602 45.776C37.0762 46.208 36.6082 46.536 36.0562 46.76C35.5122 46.984 34.9122 47.096 34.2562 47.096ZM39.0041 38.096H40.1561V47H39.0041V38.096ZM44.6717 40.58C45.5517 40.58 46.2237 40.796 46.6877 41.228C47.1597 41.66 47.3957 42.304 47.3957 43.16V47H46.3037V46.16C46.1117 46.456 45.8357 46.684 45.4757 46.844C45.1237 46.996 44.7037 47.072 44.2157 47.072C43.5037 47.072 42.9317 46.9 42.4997 46.556C42.0757 46.212 41.8637 45.76 41.8637 45.2C41.8637 44.64 42.0677 44.192 42.4757 43.856C42.8837 43.512 43.5317 43.34 44.4197 43.34H46.2437V43.112C46.2437 42.616 46.0997 42.236 45.8117 41.972C45.5237 41.708 45.0997 41.576 44.5397 41.576C44.1637 41.576 43.7957 41.64 43.4357 41.768C43.0757 41.888 42.7717 42.052 42.5237 42.26L42.0437 41.396C42.3717 41.132 42.7637 40.932 43.2197 40.796C43.6757 40.652 44.1597 40.58 44.6717 40.58ZM44.4077 46.184C44.8477 46.184 45.2277 46.088 45.5477 45.896C45.8677 45.696 46.0997 45.416 46.2437 45.056V44.168H44.4677C43.4917 44.168 43.0037 44.496 43.0037 45.152C43.0037 45.472 43.1277 45.724 43.3757 45.908C43.6237 46.092 43.9677 46.184 44.4077 46.184ZM51.3515 47.072C50.8315 47.072 50.3315 47.004 49.8515 46.868C49.3715 46.724 48.9955 46.544 48.7235 46.328L49.2035 45.416C49.4835 45.616 49.8235 45.776 50.2235 45.896C50.6235 46.016 51.0275 46.076 51.4355 46.076C52.4435 46.076 52.9475 45.788 52.9475 45.212C52.9475 45.02 52.8795 44.868 52.7435 44.756C52.6075 44.644 52.4355 44.564 52.2275 44.516C52.0275 44.46 51.7395 44.4 51.3635 44.336C50.8515 44.256 50.4315 44.164 50.1035 44.06C49.7835 43.956 49.5075 43.78 49.2755 43.532C49.0435 43.284 48.9275 42.936 48.9275 42.488C48.9275 41.912 49.1675 41.452 49.6475 41.108C50.1275 40.756 50.7715 40.58 51.5795 40.58C52.0035 40.58 52.4275 40.632 52.8515 40.736C53.2755 40.84 53.6235 40.98 53.8955 41.156L53.4035 42.068C52.8835 41.732 52.2715 41.564 51.5675 41.564C51.0795 41.564 50.7075 41.644 50.4515 41.804C50.1955 41.964 50.0675 42.176 50.0675 42.44C50.0675 42.648 50.1395 42.812 50.2835 42.932C50.4275 43.052 50.6035 43.14 50.8115 43.196C51.0275 43.252 51.3275 43.316 51.7115 43.388C52.2235 43.476 52.6355 43.572 52.9475 43.676C53.2675 43.772 53.5395 43.94 53.7635 44.18C53.9875 44.42 54.0995 44.756 54.0995 45.188C54.0995 45.764 53.8515 46.224 53.3555 46.568C52.8675 46.904 52.1995 47.072 51.3515 47.072ZM61.2873 43.856C61.2873 43.944 61.2793 44.06 61.2633 44.204H56.1033C56.1753 44.764 56.4193 45.216 56.8353 45.56C57.2593 45.896 57.7833 46.064 58.4073 46.064C59.1673 46.064 59.7793 45.808 60.2433 45.296L60.8793 46.04C60.5913 46.376 60.2313 46.632 59.7993 46.808C59.3753 46.984 58.8993 47.072 58.3713 47.072C57.6993 47.072 57.1033 46.936 56.5833 46.664C56.0633 46.384 55.6593 45.996 55.3713 45.5C55.0913 45.004 54.9513 44.444 54.9513 43.82C54.9513 43.204 55.0873 42.648 55.3593 42.152C55.6393 41.656 56.0193 41.272 56.4993 41C56.9873 40.72 57.5353 40.58 58.1433 40.58C58.7513 40.58 59.2913 40.72 59.7633 41C60.2433 41.272 60.6153 41.656 60.8793 42.152C61.1513 42.648 61.2873 43.216 61.2873 43.856ZM58.1433 41.552C57.5913 41.552 57.1273 41.72 56.7513 42.056C56.3833 42.392 56.1673 42.832 56.1033 43.376H60.1833C60.1193 42.84 59.8993 42.404 59.5233 42.068C59.1553 41.724 58.6953 41.552 58.1433 41.552ZM64.7109 47.072C64.1909 47.072 63.6909 47.004 63.2109 46.868C62.7309 46.724 62.3549 46.544 62.0829 46.328L62.5629 45.416C62.8429 45.616 63.1829 45.776 63.5829 45.896C63.9829 46.016 64.3869 46.076 64.7949 46.076C65.8029 46.076 66.3069 45.788 66.3069 45.212C66.3069 45.02 66.2389 44.868 66.1029 44.756C65.9669 44.644 65.7949 44.564 65.5869 44.516C65.3869 44.46 65.0989 44.4 64.7229 44.336C64.2109 44.256 63.7909 44.164 63.4629 44.06C63.1429 43.956 62.8669 43.78 62.6349 43.532C62.4029 43.284 62.2869 42.936 62.2869 42.488C62.2869 41.912 62.5269 41.452 63.0069 41.108C63.4869 40.756 64.1309 40.58 64.9389 40.58C65.3629 40.58 65.7869 40.632 66.2109 40.736C66.6349 40.84 66.9829 40.98 67.2549 41.156L66.7629 42.068C66.2429 41.732 65.6309 41.564 64.9269 41.564C64.4389 41.564 64.0669 41.644 63.8109 41.804C63.5549 41.964 63.4269 42.176 63.4269 42.44C63.4269 42.648 63.4989 42.812 63.6429 42.932C63.7869 43.052 63.9629 43.14 64.1709 43.196C64.3869 43.252 64.6869 43.316 65.0709 43.388C65.5829 43.476 65.9949 43.572 66.3069 43.676C66.6269 43.772 66.8989 43.94 67.1229 44.18C67.3469 44.42 67.4589 44.756 67.4589 45.188C67.4589 45.764 67.2109 46.224 66.7149 46.568C66.2269 46.904 65.5589 47.072 64.7109 47.072Z" fill="#CBB6A2"/>
</svg>
