<svg width="76" height="55" viewBox="0 0 68 55" fill="none" xmlns="http://www.w3.org/2000/svg">
<path d="M29.8029 10.5293H42.5868M29.8029 15.5008H42.5868M29.8029 20.4724H42.5868" stroke="#CBB6A2" stroke-width="1.42044" stroke-linecap="round" stroke-linejoin="round"/>
<path d="M26.2517 11.2388C26.644 11.2388 26.9619 10.9208 26.9619 10.5286C26.9619 10.1363 26.644 9.81836 26.2517 9.81836C25.8595 9.81836 25.5415 10.1363 25.5415 10.5286C25.5415 10.9208 25.8595 11.2388 26.2517 11.2388Z" stroke="#CBB6A2" stroke-width="1.42044" stroke-linecap="round" stroke-linejoin="round"/>
<path d="M26.2517 16.2105C26.644 16.2105 26.9619 15.8925 26.9619 15.5003C26.9619 15.108 26.644 14.79 26.2517 14.79C25.8595 14.79 25.5415 15.108 25.5415 15.5003C25.5415 15.8925 25.8595 16.2105 26.2517 16.2105Z" stroke="#CBB6A2" stroke-width="1.42044" stroke-linecap="round" stroke-linejoin="round"/>
<path d="M26.2517 21.1822C26.644 21.1822 26.9619 20.8642 26.9619 20.4719C26.9619 20.0797 26.644 19.7617 26.2517 19.7617C25.8595 19.7617 25.5415 20.0797 25.5415 20.4719C25.5415 20.8642 25.8595 21.1822 26.2517 21.1822Z" stroke="#CBB6A2" stroke-width="1.42044" stroke-linecap="round" stroke-linejoin="round"/>
<path d="M9.80748 38.6C10.8955 38.6 11.7515 38.86 12.3755 39.38C12.9995 39.9 13.3115 40.616 13.3115 41.528C13.3115 42.44 12.9995 43.156 12.3755 43.676C11.7515 44.196 10.8955 44.456 9.80748 44.456H7.73148V47H6.53148V38.6H9.80748ZM9.77148 43.412C10.5315 43.412 11.1115 43.252 11.5115 42.932C11.9115 42.604 12.1115 42.136 12.1115 41.528C12.1115 40.92 11.9115 40.456 11.5115 40.136C11.1115 39.808 10.5315 39.644 9.77148 39.644H7.73148V43.412H9.77148ZM17.1639 40.58C18.0439 40.58 18.7159 40.796 19.1799 41.228C19.6519 41.66 19.8879 42.304 19.8879 43.16V47H18.7959V46.16C18.6039 46.456 18.3279 46.684 17.9679 46.844C17.6159 46.996 17.1959 47.072 16.7079 47.072C15.9959 47.072 15.4239 46.9 14.9919 46.556C14.5679 46.212 14.3559 45.76 14.3559 45.2C14.3559 44.64 14.5599 44.192 14.9679 43.856C15.3759 43.512 16.0239 43.34 16.9119 43.34H18.7359V43.112C18.7359 42.616 18.5919 42.236 18.3039 41.972C18.0159 41.708 17.5919 41.576 17.0319 41.576C16.6559 41.576 16.2879 41.64 15.9279 41.768C15.5679 41.888 15.2639 42.052 15.0159 42.26L14.5359 41.396C14.8639 41.132 15.2559 40.932 15.7119 40.796C16.1679 40.652 16.6519 40.58 17.1639 40.58ZM16.8999 46.184C17.3399 46.184 17.7199 46.088 18.0399 45.896C18.3599 45.696 18.5919 45.416 18.7359 45.056V44.168H16.9599C15.9839 44.168 15.4959 44.496 15.4959 45.152C15.4959 45.472 15.6199 45.724 15.8679 45.908C16.1159 46.092 16.4599 46.184 16.8999 46.184ZM28.0549 40.64V49.328H26.9029V46.04C26.6389 46.376 26.3149 46.632 25.9309 46.808C25.5549 46.984 25.1389 47.072 24.6829 47.072C24.0669 47.072 23.5149 46.936 23.0269 46.664C22.5389 46.392 22.1549 46.012 21.8749 45.524C21.6029 45.028 21.4669 44.46 21.4669 43.82C21.4669 43.18 21.6029 42.616 21.8749 42.128C22.1549 41.64 22.5389 41.26 23.0269 40.988C23.5149 40.716 24.0669 40.58 24.6829 40.58C25.1549 40.58 25.5869 40.672 25.9789 40.856C26.3709 41.032 26.6949 41.296 26.9509 41.648V40.64H28.0549ZM24.7789 46.064C25.1789 46.064 25.5429 45.972 25.8709 45.788C26.1989 45.596 26.4549 45.332 26.6389 44.996C26.8229 44.652 26.9149 44.26 26.9149 43.82C26.9149 43.38 26.8189 42.992 26.6269 42.656C26.4429 42.32 26.1869 42.06 25.8589 41.876C25.5389 41.684 25.1789 41.588 24.7789 41.588C24.3709 41.588 24.0029 41.68 23.6749 41.864C23.3549 42.048 23.0989 42.312 22.9069 42.656C22.7229 42.992 22.6309 43.38 22.6309 43.82C22.6309 44.26 22.7229 44.652 22.9069 44.996C23.0989 45.332 23.3549 45.596 23.6749 45.788C24.0029 45.972 24.3709 46.064 24.7789 46.064ZM36.1626 40.64V47H35.0706V46.04C34.8386 46.368 34.5306 46.624 34.1466 46.808C33.7706 46.984 33.3586 47.072 32.9106 47.072C32.0626 47.072 31.3946 46.84 30.9066 46.376C30.4186 45.904 30.1746 45.212 30.1746 44.3V40.64H31.3266V44.168C31.3266 44.784 31.4746 45.252 31.7706 45.572C32.0666 45.884 32.4906 46.04 33.0426 46.04C33.6506 46.04 34.1306 45.856 34.4826 45.488C34.8346 45.12 35.0106 44.6 35.0106 43.928V40.64H36.1626ZM44.1037 43.856C44.1037 43.944 44.0957 44.06 44.0797 44.204H38.9197C38.9917 44.764 39.2357 45.216 39.6517 45.56C40.0757 45.896 40.5997 46.064 41.2237 46.064C41.9837 46.064 42.5957 45.808 43.0597 45.296L43.6957 46.04C43.4077 46.376 43.0477 46.632 42.6157 46.808C42.1917 46.984 41.7157 47.072 41.1877 47.072C40.5157 47.072 39.9197 46.936 39.3997 46.664C38.8797 46.384 38.4757 45.996 38.1877 45.5C37.9077 45.004 37.7677 44.444 37.7677 43.82C37.7677 43.204 37.9037 42.648 38.1757 42.152C38.4557 41.656 38.8357 41.272 39.3157 41C39.8037 40.72 40.3517 40.58 40.9597 40.58C41.5677 40.58 42.1077 40.72 42.5797 41C43.0597 41.272 43.4317 41.656 43.6957 42.152C43.9677 42.648 44.1037 43.216 44.1037 43.856ZM40.9597 41.552C40.4077 41.552 39.9437 41.72 39.5677 42.056C39.1997 42.392 38.9837 42.832 38.9197 43.376H42.9997C42.9357 42.84 42.7157 42.404 42.3397 42.068C41.9717 41.724 41.5117 41.552 40.9597 41.552ZM49.2793 46.628C49.1113 46.772 48.9033 46.884 48.6553 46.964C48.4073 47.036 48.1513 47.072 47.8873 47.072C47.2473 47.072 46.7513 46.9 46.3993 46.556C46.0473 46.212 45.8713 45.72 45.8713 45.08V41.588H44.7913V40.64H45.8713V39.248H47.0233V40.64H48.8473V41.588H47.0233V45.032C47.0233 45.376 47.1073 45.64 47.2753 45.824C47.4513 46.008 47.6993 46.1 48.0193 46.1C48.3713 46.1 48.6713 46 48.9193 45.8L49.2793 46.628ZM56.2091 43.856C56.2091 43.944 56.2011 44.06 56.1851 44.204H51.0251C51.0971 44.764 51.3411 45.216 51.7571 45.56C52.1811 45.896 52.7051 46.064 53.3291 46.064C54.0891 46.064 54.7011 45.808 55.1651 45.296L55.8011 46.04C55.5131 46.376 55.1531 46.632 54.7211 46.808C54.2971 46.984 53.8211 47.072 53.2931 47.072C52.6211 47.072 52.0251 46.936 51.5051 46.664C50.9851 46.384 50.5811 45.996 50.2931 45.5C50.0131 45.004 49.8731 44.444 49.8731 43.82C49.8731 43.204 50.0091 42.648 50.2811 42.152C50.5611 41.656 50.9411 41.272 51.4211 41C51.9091 40.72 52.4571 40.58 53.0651 40.58C53.6731 40.58 54.2131 40.72 54.6851 41C55.1651 41.272 55.5371 41.656 55.8011 42.152C56.0731 42.648 56.2091 43.216 56.2091 43.856ZM53.0651 41.552C52.5131 41.552 52.0491 41.72 51.6731 42.056C51.3051 42.392 51.0891 42.832 51.0251 43.376H55.1051C55.0411 42.84 54.8211 42.404 54.4451 42.068C54.0771 41.724 53.6171 41.552 53.0651 41.552ZM59.6328 47.072C59.1128 47.072 58.6128 47.004 58.1328 46.868C57.6528 46.724 57.2768 46.544 57.0048 46.328L57.4848 45.416C57.7648 45.616 58.1048 45.776 58.5048 45.896C58.9048 46.016 59.3088 46.076 59.7168 46.076C60.7248 46.076 61.2288 45.788 61.2288 45.212C61.2288 45.02 61.1608 44.868 61.0248 44.756C60.8888 44.644 60.7168 44.564 60.5088 44.516C60.3088 44.46 60.0208 44.4 59.6448 44.336C59.1328 44.256 58.7128 44.164 58.3848 44.06C58.0648 43.956 57.7888 43.78 57.5568 43.532C57.3248 43.284 57.2088 42.936 57.2088 42.488C57.2088 41.912 57.4488 41.452 57.9288 41.108C58.4088 40.756 59.0528 40.58 59.8608 40.58C60.2848 40.58 60.7088 40.632 61.1328 40.736C61.5568 40.84 61.9048 40.98 62.1768 41.156L61.6848 42.068C61.1648 41.732 60.5528 41.564 59.8488 41.564C59.3608 41.564 58.9888 41.644 58.7328 41.804C58.4768 41.964 58.3488 42.176 58.3488 42.44C58.3488 42.648 58.4208 42.812 58.5648 42.932C58.7088 43.052 58.8848 43.14 59.0928 43.196C59.3088 43.252 59.6088 43.316 59.9928 43.388C60.5048 43.476 60.9168 43.572 61.2288 43.676C61.5488 43.772 61.8208 43.94 62.0448 44.18C62.2688 44.42 62.3808 44.756 62.3808 45.188C62.3808 45.764 62.1328 46.224 61.6368 46.568C61.1488 46.904 60.4808 47.072 59.6328 47.072Z" fill="#CBB6A2"/>
</svg>
