<svg width="76" height="55" viewBox="0 0 43 55" fill="none" xmlns="http://www.w3.org/2000/svg">
<path d="M21.6399 5.00093C16.0161 4.92497 11.425 9.51589 11.5009 15.1394C11.5759 20.5326 15.9676 24.9241 21.3611 24.999C26.9858 25.076 31.576 20.485 31.499 14.8615C31.425 9.46734 27.0334 5.07592 21.6399 5.00093ZM27.7175 20.7326C27.6983 20.7533 27.6749 20.7696 27.6487 20.7802C27.6226 20.7908 27.5945 20.7956 27.5663 20.7941C27.5381 20.7926 27.5106 20.785 27.4857 20.7717C27.4609 20.7584 27.4392 20.7398 27.4223 20.7172C26.9923 20.1547 26.4657 19.673 25.8671 19.2948C24.6431 18.5093 23.0922 18.0766 21.5005 18.0766C19.9087 18.0766 18.3578 18.5093 17.1338 19.2948C16.5353 19.6729 16.0087 20.1543 15.5786 20.7168C15.5617 20.7393 15.5401 20.7579 15.5152 20.7712C15.4903 20.7845 15.4628 20.7921 15.4346 20.7936C15.4065 20.7951 15.3783 20.7903 15.3522 20.7797C15.3261 20.7691 15.3026 20.7528 15.2834 20.7321C13.8728 19.2094 13.0737 17.2196 13.0393 15.1442C12.961 10.4663 16.7997 6.55078 21.4798 6.53925C26.1599 6.52771 29.9616 10.3278 29.9616 15C29.9632 17.1255 29.1617 19.1731 27.7175 20.7326Z" fill="#CACACA"/>
<path d="M21.5005 9.61572C20.5524 9.61572 19.6953 9.97098 19.0862 10.6166C18.4771 11.2622 18.1727 12.1549 18.2415 13.113C18.3809 14.9998 19.8429 16.5381 21.5005 16.5381C23.1581 16.5381 24.6172 14.9998 24.7595 13.1135C24.8306 12.1645 24.5287 11.28 23.9095 10.6224C23.298 9.97338 22.4423 9.61572 21.5005 9.61572Z" fill="#CACACA"/>
<path d="M9.60631 38.6C10.6943 38.6 11.5503 38.86 12.1743 39.38C12.7983 39.9 13.1103 40.616 13.1103 41.528C13.1103 42.44 12.7983 43.156 12.1743 43.676C11.5503 44.196 10.6943 44.456 9.60631 44.456H7.53031V47H6.33031V38.6H9.60631ZM9.57031 43.412C10.3303 43.412 10.9103 43.252 11.3103 42.932C11.7103 42.604 11.9103 42.136 11.9103 41.528C11.9103 40.92 11.7103 40.456 11.3103 40.136C10.9103 39.808 10.3303 39.644 9.57031 39.644H7.53031V43.412H9.57031ZM20.4298 43.856C20.4298 43.944 20.4218 44.06 20.4058 44.204H15.2458C15.3178 44.764 15.5618 45.216 15.9778 45.56C16.4018 45.896 16.9258 46.064 17.5498 46.064C18.3098 46.064 18.9218 45.808 19.3858 45.296L20.0218 46.04C19.7338 46.376 19.3738 46.632 18.9418 46.808C18.5178 46.984 18.0418 47.072 17.5138 47.072C16.8418 47.072 16.2458 46.936 15.7258 46.664C15.2058 46.384 14.8018 45.996 14.5138 45.5C14.2338 45.004 14.0938 44.444 14.0938 43.82C14.0938 43.204 14.2298 42.648 14.5018 42.152C14.7818 41.656 15.1618 41.272 15.6418 41C16.1298 40.72 16.6778 40.58 17.2858 40.58C17.8938 40.58 18.4338 40.72 18.9058 41C19.3858 41.272 19.7578 41.656 20.0218 42.152C20.2938 42.648 20.4298 43.216 20.4298 43.856ZM17.2858 41.552C16.7338 41.552 16.2698 41.72 15.8938 42.056C15.5258 42.392 15.3098 42.832 15.2458 43.376H19.3258C19.2618 42.84 19.0418 42.404 18.6658 42.068C18.2978 41.724 17.8378 41.552 17.2858 41.552ZM23.1335 41.708C23.3335 41.34 23.6295 41.06 24.0215 40.868C24.4135 40.676 24.8895 40.58 25.4495 40.58V41.696C25.3855 41.688 25.2975 41.684 25.1855 41.684C24.5615 41.684 24.0695 41.872 23.7095 42.248C23.3575 42.616 23.1815 43.144 23.1815 43.832V47H22.0295V40.64H23.1335V41.708ZM29.4552 38.972C28.7672 38.972 28.4232 39.344 28.4232 40.088V40.64H30.2712V41.588H28.4472V47H27.2952V41.588H26.2152V40.64H27.2952V40.076C27.2952 39.444 27.4792 38.944 27.8472 38.576C28.2152 38.208 28.7312 38.024 29.3952 38.024C29.6512 38.024 29.8912 38.056 30.1152 38.12C30.3392 38.184 30.5312 38.276 30.6912 38.396L30.3432 39.272C30.0792 39.072 29.7832 38.972 29.4552 38.972ZM32.3232 40.64H33.4752V47H32.3232V40.64ZM32.8992 39.416C32.6752 39.416 32.4872 39.344 32.3352 39.2C32.1912 39.056 32.1192 38.88 32.1192 38.672C32.1192 38.464 32.1912 38.288 32.3352 38.144C32.4872 37.992 32.6752 37.916 32.8992 37.916C33.1232 37.916 33.3072 37.988 33.4512 38.132C33.6032 38.268 33.6792 38.44 33.6792 38.648C33.6792 38.864 33.6032 39.048 33.4512 39.2C33.3072 39.344 33.1232 39.416 32.8992 39.416ZM35.6701 38.096H36.8221V47H35.6701V38.096Z" fill="#CACACA"/>
</svg>
