<svg width="100" height="100" viewBox="0 0 100 100" fill="none" xmlns="http://www.w3.org/2000/svg">
<rect width="100" height="100" rx="10" fill="white"/>
<path d="M50.3497 25.0023C36.2903 24.8124 24.8124 36.2897 25.0023 50.3485C25.1898 63.8316 36.1689 74.8101 49.6526 74.9976C63.7145 75.1899 75.1899 63.7126 74.9976 49.6538C74.8125 36.1683 63.8335 25.1898 50.3497 25.0023ZM65.5437 64.3316C65.4958 64.3833 65.4372 64.4239 65.3718 64.4505C65.3065 64.4771 65.2362 64.4889 65.1657 64.4852C65.0953 64.4816 65.0266 64.4625 64.9644 64.4293C64.9021 64.396 64.848 64.3496 64.8058 64.2931C63.7308 62.8867 62.4143 61.6825 60.9177 60.7369C57.8578 58.7732 53.9806 57.6916 50.0012 57.6916C46.0218 57.6916 42.1446 58.7732 39.0846 60.7369C37.5881 61.6821 36.2716 62.8858 35.1966 64.2919C35.1543 64.3484 35.1002 64.3948 35.038 64.4281C34.9758 64.4613 34.907 64.4804 34.8366 64.484C34.7662 64.4877 34.6958 64.4758 34.6305 64.4493C34.5652 64.4227 34.5065 64.3821 34.4586 64.3303C30.9319 60.5235 28.9342 55.5491 28.8483 50.3605C28.6524 38.6657 38.2493 28.877 49.9495 28.8481C61.6497 28.8193 71.154 38.3196 71.154 50C71.1581 55.3137 69.1542 60.4327 65.5437 64.3316Z" fill="#CBB6A2"/>
<path d="M50.0024 36.5391C47.6323 36.5391 45.4894 37.4272 43.9666 39.0412C42.4439 40.6553 41.6831 42.887 41.8549 45.2822C42.2035 49.9993 45.8584 53.8451 50.0024 53.8451C54.1464 53.8451 57.7941 49.9993 58.1499 45.2834C58.3277 42.9111 57.573 40.6997 56.025 39.0557C54.4962 37.4332 52.3569 36.5391 50.0024 36.5391Z" fill="#CBB6A2"/>
</svg>
