<svg width="76" height="55" viewBox="0 0 63 55" fill="none" xmlns="http://www.w3.org/2000/svg">
<g clip-path="url(#clip0_145_4447)">
<path d="M35.6673 22.5V20.8333C35.6673 19.9493 35.3161 19.1014 34.691 18.4763C34.0659 17.8512 33.218 17.5 32.334 17.5H25.6673C24.7833 17.5 23.9354 17.8512 23.3103 18.4763C22.6852 19.1014 22.334 19.9493 22.334 20.8333V22.5" stroke="#CACACA" stroke-width="1.66667" stroke-linecap="round" stroke-linejoin="round"/>
<path d="M29.0003 14.1667C30.8413 14.1667 32.3337 12.6743 32.3337 10.8333C32.3337 8.99238 30.8413 7.5 29.0003 7.5C27.1594 7.5 25.667 8.99238 25.667 10.8333C25.667 12.6743 27.1594 14.1667 29.0003 14.1667Z" stroke="#CACACA" stroke-width="1.66667" stroke-linecap="round" stroke-linejoin="round"/>
<path d="M40.667 22.5001V20.8334C40.6664 20.0948 40.4206 19.3774 39.9681 18.7937C39.5156 18.2099 38.8821 17.793 38.167 17.6084" stroke="#CACACA" stroke-width="1.66667" stroke-linecap="round" stroke-linejoin="round"/>
<path d="M34.834 7.6084C35.551 7.79198 36.1865 8.20898 36.6403 8.79366C37.0942 9.37833 37.3405 10.0974 37.3405 10.8376C37.3405 11.5777 37.0942 12.2968 36.6403 12.8815C36.1865 13.4661 35.551 13.8831 34.834 14.0667" stroke="#CACACA" stroke-width="1.66667" stroke-linecap="round" stroke-linejoin="round"/>
</g>
<path d="M9.93141 47.096C8.81141 47.096 7.93941 46.776 7.31541 46.136C6.69141 45.496 6.37941 44.576 6.37941 43.376V38.6H7.57941V43.328C7.57941 45.128 8.36741 46.028 9.94341 46.028C10.7114 46.028 11.2994 45.808 11.7074 45.368C12.1154 44.92 12.3194 44.24 12.3194 43.328V38.6H13.4834V43.376C13.4834 44.584 13.1714 45.508 12.5474 46.148C11.9234 46.78 11.0514 47.096 9.93141 47.096ZM17.5996 47.072C17.0796 47.072 16.5796 47.004 16.0996 46.868C15.6196 46.724 15.2436 46.544 14.9716 46.328L15.4516 45.416C15.7316 45.616 16.0716 45.776 16.4716 45.896C16.8716 46.016 17.2756 46.076 17.6836 46.076C18.6916 46.076 19.1956 45.788 19.1956 45.212C19.1956 45.02 19.1276 44.868 18.9916 44.756C18.8556 44.644 18.6836 44.564 18.4756 44.516C18.2756 44.46 17.9876 44.4 17.6116 44.336C17.0996 44.256 16.6796 44.164 16.3516 44.06C16.0316 43.956 15.7556 43.78 15.5236 43.532C15.2916 43.284 15.1756 42.936 15.1756 42.488C15.1756 41.912 15.4156 41.452 15.8956 41.108C16.3756 40.756 17.0196 40.58 17.8276 40.58C18.2516 40.58 18.6756 40.632 19.0996 40.736C19.5236 40.84 19.8716 40.98 20.1436 41.156L19.6516 42.068C19.1316 41.732 18.5196 41.564 17.8156 41.564C17.3276 41.564 16.9556 41.644 16.6996 41.804C16.4436 41.964 16.3156 42.176 16.3156 42.44C16.3156 42.648 16.3876 42.812 16.5316 42.932C16.6756 43.052 16.8516 43.14 17.0596 43.196C17.2756 43.252 17.5756 43.316 17.9596 43.388C18.4716 43.476 18.8836 43.572 19.1956 43.676C19.5156 43.772 19.7876 43.94 20.0116 44.18C20.2356 44.42 20.3476 44.756 20.3476 45.188C20.3476 45.764 20.0996 46.224 19.6036 46.568C19.1156 46.904 18.4476 47.072 17.5996 47.072ZM27.7153 40.64V47H26.6233V46.04C26.3913 46.368 26.0833 46.624 25.6993 46.808C25.3233 46.984 24.9113 47.072 24.4633 47.072C23.6153 47.072 22.9473 46.84 22.4593 46.376C21.9713 45.904 21.7273 45.212 21.7273 44.3V40.64H22.8793V44.168C22.8793 44.784 23.0273 45.252 23.3233 45.572C23.6193 45.884 24.0433 46.04 24.5953 46.04C25.2033 46.04 25.6833 45.856 26.0353 45.488C26.3873 45.12 26.5633 44.6 26.5633 43.928V40.64H27.7153ZM32.2244 40.58C33.1044 40.58 33.7764 40.796 34.2404 41.228C34.7124 41.66 34.9484 42.304 34.9484 43.16V47H33.8564V46.16C33.6644 46.456 33.3884 46.684 33.0284 46.844C32.6764 46.996 32.2564 47.072 31.7684 47.072C31.0564 47.072 30.4844 46.9 30.0524 46.556C29.6284 46.212 29.4164 45.76 29.4164 45.2C29.4164 44.64 29.6204 44.192 30.0284 43.856C30.4364 43.512 31.0844 43.34 31.9724 43.34H33.7964V43.112C33.7964 42.616 33.6524 42.236 33.3644 41.972C33.0764 41.708 32.6524 41.576 32.0924 41.576C31.7164 41.576 31.3484 41.64 30.9884 41.768C30.6284 41.888 30.3244 42.052 30.0764 42.26L29.5964 41.396C29.9244 41.132 30.3164 40.932 30.7724 40.796C31.2284 40.652 31.7124 40.58 32.2244 40.58ZM31.9604 46.184C32.4004 46.184 32.7804 46.088 33.1004 45.896C33.4204 45.696 33.6524 45.416 33.7964 45.056V44.168H32.0204C31.0444 44.168 30.5564 44.496 30.5564 45.152C30.5564 45.472 30.6804 45.724 30.9284 45.908C31.1764 46.092 31.5204 46.184 31.9604 46.184ZM38.1843 41.708C38.3843 41.34 38.6803 41.06 39.0723 40.868C39.4643 40.676 39.9403 40.58 40.5003 40.58V41.696C40.4363 41.688 40.3483 41.684 40.2363 41.684C39.6123 41.684 39.1203 41.872 38.7603 42.248C38.4083 42.616 38.2323 43.144 38.2323 43.832V47H37.0803V40.64H38.1843V41.708ZM41.9201 40.64H43.0721V47H41.9201V40.64ZM42.4961 39.416C42.2721 39.416 42.0841 39.344 41.9321 39.2C41.7881 39.056 41.7161 38.88 41.7161 38.672C41.7161 38.464 41.7881 38.288 41.9321 38.144C42.0841 37.992 42.2721 37.916 42.4961 37.916C42.7201 37.916 42.9041 37.988 43.0481 38.132C43.2001 38.268 43.2761 38.44 43.2761 38.648C43.2761 38.864 43.2001 39.048 43.0481 39.2C42.9041 39.344 42.7201 39.416 42.4961 39.416ZM47.9957 47.072C47.3637 47.072 46.7957 46.932 46.2917 46.652C45.7877 46.372 45.3917 45.988 45.1037 45.5C44.8237 45.004 44.6837 44.444 44.6837 43.82C44.6837 43.196 44.8237 42.64 45.1037 42.152C45.3917 41.656 45.7877 41.272 46.2917 41C46.7957 40.72 47.3637 40.58 47.9957 40.58C48.6277 40.58 49.1917 40.72 49.6877 41C50.1917 41.272 50.5837 41.656 50.8637 42.152C51.1517 42.64 51.2957 43.196 51.2957 43.82C51.2957 44.444 51.1517 45.004 50.8637 45.5C50.5837 45.988 50.1917 46.372 49.6877 46.652C49.1917 46.932 48.6277 47.072 47.9957 47.072ZM47.9957 46.064C48.4037 46.064 48.7677 45.972 49.0877 45.788C49.4157 45.596 49.6717 45.332 49.8557 44.996C50.0397 44.652 50.1317 44.26 50.1317 43.82C50.1317 43.38 50.0397 42.992 49.8557 42.656C49.6717 42.312 49.4157 42.048 49.0877 41.864C48.7677 41.68 48.4037 41.588 47.9957 41.588C47.5877 41.588 47.2197 41.68 46.8917 41.864C46.5717 42.048 46.3157 42.312 46.1237 42.656C45.9397 42.992 45.8477 43.38 45.8477 43.82C45.8477 44.26 45.9397 44.652 46.1237 44.996C46.3157 45.332 46.5717 45.596 46.8917 45.788C47.2197 45.972 47.5877 46.064 47.9957 46.064ZM54.7129 47.072C54.1929 47.072 53.6929 47.004 53.2129 46.868C52.7329 46.724 52.3569 46.544 52.0849 46.328L52.5649 45.416C52.8449 45.616 53.1849 45.776 53.5849 45.896C53.9849 46.016 54.3889 46.076 54.7969 46.076C55.8049 46.076 56.3089 45.788 56.3089 45.212C56.3089 45.02 56.2409 44.868 56.1049 44.756C55.9689 44.644 55.7969 44.564 55.5889 44.516C55.3889 44.46 55.1009 44.4 54.7249 44.336C54.2129 44.256 53.7929 44.164 53.4649 44.06C53.1449 43.956 52.8689 43.78 52.6369 43.532C52.4049 43.284 52.2889 42.936 52.2889 42.488C52.2889 41.912 52.5289 41.452 53.0089 41.108C53.4889 40.756 54.1329 40.58 54.9409 40.58C55.3649 40.58 55.7889 40.632 56.2129 40.736C56.6369 40.84 56.9849 40.98 57.2569 41.156L56.7649 42.068C56.2449 41.732 55.6329 41.564 54.9289 41.564C54.4409 41.564 54.0689 41.644 53.8129 41.804C53.5569 41.964 53.4289 42.176 53.4289 42.44C53.4289 42.648 53.5009 42.812 53.6449 42.932C53.7889 43.052 53.9649 43.14 54.1729 43.196C54.3889 43.252 54.6889 43.316 55.0729 43.388C55.5849 43.476 55.9969 43.572 56.3089 43.676C56.6289 43.772 56.9009 43.94 57.1249 44.18C57.3489 44.42 57.4609 44.756 57.4609 45.188C57.4609 45.764 57.2129 46.224 56.7169 46.568C56.2289 46.904 55.5609 47.072 54.7129 47.072Z" fill="#CACACA"/>
<defs>
<clipPath id="clip0_145_4447">
<rect width="20" height="20" fill="white" transform="translate(21.5 5)"/>
</clipPath>
</defs>
</svg>
