<svg width="39" height="24" viewBox="0 0 39 24" fill="none" xmlns="http://www.w3.org/2000/svg">
<path d="M5.77377 22.6228L7.70059 22.1411V1.42777H4.00752C4.00752 2.73373 3.65427 3.98616 2.94777 5.18507C2.64805 5.67748 2.3055 6.08425 1.92014 6.40539H0.956726V0.624932H19.7432V6.40539H18.7798C18.373 6.08425 18.0198 5.67748 17.7201 5.18507C17.035 4.02898 16.6924 2.77655 16.6924 1.42777H12.9993V22.1411L14.9262 22.6228V23.1045H5.77377V22.6228ZM30.0121 23.5862C28.492 23.5862 27.0683 23.2437 25.7409 22.5586C25.1415 22.2588 24.6384 21.9056 24.2316 21.4988C23.9319 21.9912 23.5572 22.4301 23.1076 22.8155C22.7223 23.0938 22.5082 23.2437 22.4653 23.2651H21.6625V17.1635H22.9471C23.2682 18.2125 23.7178 19.1545 24.2958 19.9895C25.6018 21.8521 27.2931 22.7834 29.3698 22.7834C30.5901 22.7834 31.5642 22.4194 32.2921 21.6915C33.02 20.9636 33.384 19.9895 33.384 18.7691C33.384 18.0626 33.1699 17.4311 32.7417 16.8744C32.3349 16.3178 31.8211 15.8254 31.2003 15.3972C30.5794 14.969 29.7123 14.4338 28.5991 13.7915C27.1861 12.9994 26.0407 12.2822 25.1629 11.6399C24.2851 10.9976 23.5358 10.1948 22.9149 9.23139C22.2941 8.24657 21.9836 7.09048 21.9836 5.76312C21.9836 4.71407 22.2727 3.77207 22.8507 2.93712C23.4502 2.08075 24.3386 1.40636 25.5161 0.913955C26.6936 0.400137 28.1388 0.143228 29.8515 0.143228C31.0932 0.143228 32.3349 0.496478 33.5767 1.20298C34.0477 1.45989 34.5187 1.80243 34.9897 2.23062C35.3536 1.67398 35.7283 1.23509 36.1137 0.913955C36.499 0.635637 36.7131 0.485773 36.7559 0.464364H37.5588V6.56596H36.2742C35.9959 5.53832 35.5784 4.60703 35.0218 3.77207C34.508 2.95852 33.8657 2.28414 33.095 1.74891C32.3456 1.21368 31.4786 0.946068 30.4938 0.946068C29.6588 0.946068 28.9416 1.27791 28.3421 1.94159C27.7427 2.60527 27.443 3.45093 27.443 4.47857C27.443 5.27071 27.6678 5.98791 28.1174 6.63019C28.5884 7.25105 29.1557 7.79698 29.8194 8.26798C30.5045 8.73898 31.4251 9.30632 32.5812 9.97001C33.9299 10.7407 35.0218 11.4258 35.8567 12.0253C36.6917 12.6247 37.3982 13.3741 37.9762 14.2732C38.5543 15.151 38.8433 16.1679 38.8433 17.324C38.8433 18.4801 38.5115 19.5399 37.8478 20.5033C37.1841 21.4453 36.1886 22.1946 34.8612 22.7512C33.5339 23.3079 31.9175 23.5862 30.0121 23.5862Z" fill="#CBB6A2"/>
</svg>
